<?xml version="1.0" encoding="UTF-8" standalone="no"?>
<!DOCTYPE svg PUBLIC "-//W3C//DTD SVG 1.1//EN" "http://www.w3.org/Graphics/SVG/1.1/DTD/svg11.dtd">
<!-- Created with Vectornator (http://vectornator.io/) -->
<svg height="100%" stroke-miterlimit="10" style="fill-rule:nonzero;clip-rule:evenodd;stroke-linecap:round;stroke-linejoin:round;" version="1.1" viewBox="0 0 428 2500" width="100%" xml:space="preserve" xmlns="http://www.w3.org/2000/svg" xmlns:vectornator="http://vectornator.io" xmlns:xlink="http://www.w3.org/1999/xlink">
<defs/>
<clipPath id="ArtboardFrame">
<rect height="2500" width="428" x="0" y="0"/>
</clipPath>
<g clip-path="url(#ArtboardFrame)" id="Layer-1" vectornator:layerName="Layer 1">
<path d="M-439.225 13.9103C-439.225-73.9175-422.32-169.727-435.27-256.328C-444.027-314.891-469.351-353.058-495.909-405.288" fill="none" opacity="1" stroke="#000000" stroke-linecap="round" stroke-linejoin="round" stroke-width="300" vectornator:layerName="Curve 1"/>
<path d="M-289.421 2789.67C45.4327 2512.22 386.226 2367.93 792.706 2263.41C833.997 2252.79 706.343 2261.61 665.129 2272.52C592.929 2291.64 521.862 2315.9 453.26 2345.43C235.894 2438.99-64.5267 2569.33-237.023 2741.83C-249.932 2754.73-201.406 2733.07-184.625 2725.88C-126.857 2701.12-70.6314 2672.9-13.7631 2646.14C58.4649 2612.15 131.047 2578.89 202.662 2543.63C390.975 2450.9 602.361 2370.95 781.315 2261.13C804.299 2247.03 726.755 2265.14 701.579 2274.8C645.353 2296.38 590.572 2321.57 535.274 2345.43C393.972 2406.39-17.2681 2680.21-177.791 2643.86C-206.293 2637.41-161.691 2585.1-141.34 2564.13C-85.6764 2506.76-19.394 2460.48 45.4691 2413.77C236.844 2275.94 331.107 2223.31 539.83 2124.44C595.904 2097.88 774.953 2058.92 712.97 2056.1C432.12 2043.33 84.038 2358.3-125.393 2511.73C-186.162 2556.25-339.057 2581.04-305.368 2648.42C-303.241 2652.67-70.6042 2475.7 118.37 2349.98C261.1 2255.03 578.822 2140.13 703.858 2015.09C739.496 1979.45 599.789 2011.1 553.499 2031.04C481.956 2061.85 417.156 2106.52 350.743 2147.23C253.101 2207.07-38.8228 2393.3-38.8228 2409.21C-38.8228 2416.69-24.377 2404.49-18.3194 2400.1C88.3575 2322.85 191.658 2240.52 302.901 2170.01C399.961 2108.48 518.755 2078.91 603.619 2001.42C644 1964.55 491.404 2005.6 441.869 2028.76C361.054 2066.54 286.61 2116.89 211.775 2165.45C109.245 2231.99 22.3413 2289.82-59.3263 2375.04C-90.5393 2407.61 14.0071 2322.47 50.0254 2295.31C113.204 2247.66 174.749 2197.81 239.113 2151.78C325.998 2089.65 472.708 2080.94 510.214 1980.92C518.548 1958.69 461.599 1981.14 439.591 1990.03C385.417 2011.92 335.61 2043.42 284.676 2072.05C223.251 2106.57 47.9694 2208.58-25.1539 2261.13C-38.3936 2270.65 4.53966 2247.36 18.1311 2238.35C67.6565 2205.53 115.23 2169.86 163.933 2135.83C372.152 1990.37 301.884 2032.96 491.989 1923.97C501.716 1918.39 532.242 1911.56 521.605 1908.02C435.169 1879.21 216.192 2062.32 168.49 2094.83C122.168 2126.4 77.3422 2160.11 31.8001 2192.79C12.7943 2206.43-42.4637 2249.53-25.1539 2233.8C115.265 2106.14 339.633 2021.21 457.816 1878.4C491.805 1837.33-45.9186 2136.12-2.37231 2131.28C128.234 2116.77 383.419 1903.95 485.154 1819.17C529.816 1781.95 376.065 1860.79 325.683 1889.79C71.5724 2036.1 236.893 1941.53 31.8001 2072.05C22.3408 2078.07-5.74418 2095.92 2.18405 2087.99C106.036 1984.14 410.511 1876.27 462.373 1753.1C473.667 1726.28 404.918 1764.62 378.081 1775.89C338.146 1792.65 210.703 1870.66 175.324 1892.07C144.127 1910.95 45.4532 1949.03 81.9196 1949.03C92.1079 1949.03 100.881 1941.16 109.258 1935.36C255.258 1834.28 398.885 1740.71 553.499 1652.86C569.806 1643.6 602.779 1641.95 601.34 1623.25C596.961 1566.32 487.157 1640.95 435.035 1664.26C334.867 1709.05 135.952 1785.11 61.4162 1873.85C39.7868 1899.6 125.606 1850.69 152.543 1830.56C190.282 1802.36 427.922 1665.09 446.425 1609.58C448.6 1603.06 432.61 1605.7 425.922 1607.3C280.147 1642.16 145.272 1744.28 22.6875 1826C-1.70219 1842.26-77.2483 1878.4-47.9356 1878.4C17.4613 1878.4 389.888 1635.99 403.14 1577.69C419.142 1507.28 264.793 1622.92 202.662 1659.7C126.33 1704.89 36.794 1735.31-22.8758 1800.94C-37.0412 1816.53 16.2518 1784.82 34.0782 1773.61C90.0643 1738.4 143.077 1698.66 198.106 1661.98C301.862 1592.81 426.731 1549.75 512.492 1459.22C549.606 1420.04 403.975 1474.65 355.299 1497.95C251.431 1547.66 41.6218 1628.63-34.2666 1723.49C-70.06 1768.23 59.5035 1657.6 106.979 1625.53C178.017 1577.53 249.961 1530.79 323.405 1486.56C416.513 1430.49 556.056 1428.94 612.731 1336.2C642.242 1287.91 498.226 1347.58 446.425 1370.37C404.739 1388.71 222.962 1485.91 184.437 1507.06C136.783 1533.23-0.000204925 1620.32 40.9127 1584.52C177.089 1465.37 402.993 1414.77 523.883 1283.8C590.843 1211.26 337.61 1351.25 250.504 1397.71C193.013 1428.37-2.29103 1573.13-79.8297 1573.13C-150.424 1573.13 41.3437 1500.56 100.145 1461.5C209.265 1389.01 319.427 1318.09 428.2 1245.07C438.541 1238.13 470.265 1221.89 457.816 1222.29C345.99 1225.9-121.167 1515.37 20.4093 1429.6C78.5975 1394.36 132.879 1352.88 191.271 1317.97C272.686 1269.3 355.308 1222.52 439.591 1179.01C495.155 1150.32 560.779 1139.54 610.453 1101.55C655.775 1066.89 494.844 1109.98 441.869 1131.17C391.968 1151.13 342.531 1172.31 293.789 1194.95C217.199 1230.54 56.224 1286.72-6.92866 1349.87C-51.4191 1394.36 102.709 1288.1 157.099 1256.46C218.577 1220.71 371.308 1136.19 453.26 1096.99C513.922 1067.98 698.207 1023.19 633.235 1005.87C479.408 964.846 276.794 1105.16 147.986 1167.62C111.61 1185.25 2.84165 1238.17 40.9127 1224.57C220.825 1160.32 429.825 1060.2 594.506 964.86C662.047 925.757 437.185 979.953 364.412 1008.14C176.413 1080.97 298.976 1036.85 127.483 1110.66C104.296 1120.64 37.3228 1153.98 56.8599 1138C165.98 1048.72 577.75 962.693 626.4 853.23C660.889 775.63 459.25 887.874 380.359 919.297C267.254 964.347 147.719 1006 38.6346 1060.54C17.3176 1071.2 83.2958 1043.68 104.701 1033.2C156.257 1007.96 205.851 978.85 257.338 953.469C386.789 889.655 576.017 810.688 574.002 807.667C536.626 751.602 206.036 861.647 179.881 869.177C117.925 887.013-65.4666 946.314-6.92866 919.297C112.036 864.39 486.998 820.787 553.499 718.818C592.221 659.445 409.391 716.235 341.63 737.044C258.599 762.541 33.0087 816.508-29.7102 889.68C-79.4507 947.711 108.863 825.134 177.602 791.719C272.005 745.829 402.179 743.299 462.373 657.308C493.292 613.138 352.618 643.044 300.623 657.308C234.345 675.49-6.42587 733.707-54.77 791.719C-102.909 849.486 87.4871 742.695 157.099 714.262C248.222 677.043 367.464 678.249 430.478 602.632C460.623 566.458 335.236 590.307 289.232 600.354C250.259 608.865 101.992 658.667 63.6944 670.977C29.6232 681.928-73.4325 711.979-38.8228 702.871C74.5449 673.037 414.001 572.472 480.598 477.333C509.892 435.485 377.645 479.131 327.961 491.002C225.408 515.506 55.9718 547.122-36.5447 602.632C-88.0241 633.52 78.5496 567.907 134.317 545.678C213.707 514.033 472.62 453.165 532.995 379.372C586.858 313.541 362.979 394.331 280.12 413.545C210.448 429.701-30.0838 454.221-88.9425 504.671C-144.32 552.138 53.6471 472.802 122.927 449.995C253.907 406.878 459.529 374.963 576.281 295.08C605.117 275.35 506.089 287.965 471.485 292.802C335.334 311.834 201.38 355.3 65.9725 379.372C38.891 384.187-35.4906 407.935-16.0413 388.485C56.8058 315.635 345.288 342.44 403.14 226.736C404.421 224.174-52.5973 314.064-100.333 329.253C-120.928 335.806-182.015 341.998-161.844 349.756C-83.7529 379.791 452.535 131.907 446.425 115.106C409.877 14.5971-131.517 240.697-123.115 190.285C-113.153 130.515 681.189-36.7847 257.338 10.3103" fill="none" opacity="1" stroke="#000000" stroke-linecap="round" stroke-linejoin="round" stroke-width="300" vectornator:layerName="Curve 2"/>
<path d="M126.112 1829.15C100.085 1395.37 206.874 1010.52 519.781 697.612" fill="none" opacity="1" stroke="#000000" stroke-linecap="round" stroke-linejoin="round" stroke-width="300" vectornator:layerName="Curve 3"/>
<path d="M-90.3062 235.499C-58.8041 191.264 161.318 87.3133 176.908 202.688C183.951 254.81 117.085 299.454 143.89 355.521C172.555 415.48 251.521 368.998 277.601 408.342C372.558 551.589 36.9955 636.14-36.9453 626.327" fill="none" opacity="1" stroke="#60cf4d" stroke-linecap="round" stroke-linejoin="round" stroke-width="98.1554" vectornator:layerName="Curve 4"/>
<path d="M520.227 901.65C482.989 827.174 339.995 639.867 239.015 761.044C162.43 852.946 310.853 892.354 279.188 971.516C260.518 1018.19 177.335 1016.5 169.148 1071.08C150.318 1196.61 264.722 1123.29 273.075 1167.14C281.528 1211.52 87.2148 1479.48 296.655 1442.24C393.171 1425.08 491.288 1273.41 564.767 1214.3" fill="none" opacity="1" stroke="#60cf4d" stroke-linecap="round" stroke-linejoin="round" stroke-width="98.1554" vectornator:layerName="Curve 5"/>
<path d="M462.999 1361.48C294.742 1381.8 214.382 1761.91 124.742 1868.41C70.9513 1932.32-62.9004 1924.77-74.2089 1831.16" fill="none" opacity="1" stroke="#60cf4d" stroke-linecap="round" stroke-linejoin="round" stroke-width="98.1554" vectornator:layerName="Curve 6"/>
<path d="M-46.7676 2240.9C-38.2309 2209.3-7.7707 2182.64 13.998 2159.06C34.0055 2137.39 53.8714 2114.58 76.9699 2096.05C245.972 1960.54 139.974 2185.03 194.459 2216.72C241.467 2244.07 388.642 2065.82 361.875 2223.56C307.664 2543.03-2.93012 2219.41-58.7504 2487.73" fill="none" opacity="1" stroke="#60cf4d" stroke-linecap="round" stroke-linejoin="round" stroke-width="98.1554" vectornator:layerName="Curve 7"/>
<path d="M-63.3916 746.289C63.4087 762.113 489.587 940.13 250.169 1111.49C145.974 1186.06-40.2199 1124.32-112.695 1266.86C-191.527 1421.9 251.769 1436.98 154.845 1486.86C104.96 1512.54 50.9453 1523.67-4.41572 1532.63C-34.4831 1537.49-64.6763 1541.54-94.8066 1545.99C-154.414 1554.81-210.501 1567.46-270.286 1553.23" fill="none" opacity="1" stroke="#a4f600" stroke-linecap="round" stroke-linejoin="round" stroke-width="98.1554" vectornator:layerName="Curve 8"/>
<path d="M509.996 736.026C406.871 663.569 289.185 672.131 216.339 552.833C136.087 421.407 330.367 370.941 305.919 283.791C291.97 234.067 200.724 217.907 192.629 170.088C160.112-22.007 490.609 197.789 513.304 216.051" fill="none" opacity="1" stroke="#a4f600" stroke-linecap="round" stroke-linejoin="round" stroke-width="98.1554" vectornator:layerName="Curve 9"/>
<path d="M509.306 2240.5C443.844 2240.5 389.774 2236.18 328.82 2208.97C71.7954 2094.23 605.8 1879.07 581.066 1771.89C565.535 1704.59 373.149 1738.33 325.558 1715.35C294.999 1700.6 306.397 1620.88 314.685 1596.84C372.782 1428.36 562.234 1444.62 707.189 1444.62" fill="none" opacity="1" stroke="#a4f600" stroke-linecap="round" stroke-linejoin="round" stroke-width="98.1554" vectornator:layerName="Curve 10"/>
<path d="M-100.737 2411.46C123.868 2333.2 226.937 1709.2-82.0811 1690.8" fill="none" opacity="1" stroke="#a4f600" stroke-linecap="round" stroke-linejoin="round" stroke-width="98.1554" vectornator:layerName="Curve 11"/>
</g>
</svg>
